# xmcd
#
# Track frame offsets: 
#        150
#        33417
#        47072
#        75112
#        122240
#        154282
#        180482
#        209472
#        238262
#        263082
#
# Disc length: 4236 seconds
#
# Revision: 3
# Processed by: cddbd v1.5.2PL0 Copyright (c) Steve Scherf et al.
# Submitted via: ExactAudioCopy v0.99pb5
#
DISCID=80108a0a
DTITLE=Omicron - Acrocosm
DYEAR=1994
DGENRE=Ambient
TTITLE0=Earth Rider
TTITLE1=Spaced Nature
TTITLE2=Warped Upward
TTITLE3=Lluana
TTITLE4=Caterpillar To ButterFly
TTITLE5=Tranquility Base
TTITLE6=A Thousand Dyes On The Moist Earth
TTITLE7=Orca
TTITLE8=One Voice
TTITLE9=Acrocosm
EXTD=
EXTT0=
EXTT1=
EXTT2=
EXTT3=
EXTT4=
EXTT5=
EXTT6=
EXTT7=
EXTT8=
EXTT9=
PLAYORDER=
